#!OML:ASF I:\Random Stuff\random\construction\7_22_03\Session 2\subj1.ASF
:FULLY-SPECIFIED
:DEGREES
495
root -6.83358 17.8825 3.53382 38.5166 60.6189 21.0569
lowerback 22.1012 -0.825296 12.8995
upperback 8.01467 2.60871 7.52249
thorax -3.2883 1.56805 0.244067
lowerneck -24.8644 -6.67683 -5.05914
upperneck 22.7656 -9.34618 7.14244
head 12.2386 -3.59859 1.86845
rclavicle -1.145e-013 -1.11319e-013
rhumerus 22.6082 5.59263 -66.3415
rradius 32.8525
rwrist 2.62521
rhand -13.2025 34.9035
rfingers 7.12502
rthumb 12.898 5.32211
lclavicle -1.145e-013 -1.11319e-013
lhumerus -24.2208 -34.0321 96.8902
lradius 65.4804
lwrist 43.526
lhand -15.9498 58.529
lfingers 7.12502
lthumb -169.751 -91.7406
rfemur -38.4531 -4.74279 15.1835
rtibia 30.5304
rfoot -10.2949 -12.8378
rtoes -0.874536
lfemur -29.5012 -5.83176 -20.2355
ltibia 17.7317
lfoot 0.0663349 2.82428
ltoes -33.8604
496
root -6.85308 17.8836 3.52638 38.6708 60.8216 21.2626
lowerback 22.1781 -0.848876 12.8298
upperback 8.02619 2.58138 7.52448
thorax -3.32155 1.55434 0.289483
lowerneck -24.8605 -6.67552 -4.99576
upperneck 22.862 -9.37765 7.15556
head 12.2756 -3.60147 1.85805
rclavicle 5.40694e-014 1.20861e-013
rhumerus 22.6023 5.36004 -66.3005
rradius 32.9471
rwrist 2.40511
rhand -13.1255 35.1288
rfingers 7.12502
rthumb 12.9723 5.55212
lclavicle 5.40694e-014 1.20861e-013
lhumerus -24.0967 -33.8583 96.8048
lradius 65.4316
lwrist 43.5569
lhand -15.9134 58.6941
lfingers 7.12502
lthumb -169.716 -91.5773
rfemur -38.3932 -4.75791 15.1409
rtibia 30.4527
rfoot -10.2597 -13.0084
rtoes -0.302729
lfemur -29.6205 -5.8724 -20.2491
ltibia 17.7954
lfoot 0.255697 2.58573
ltoes -33.9095
497
root -6.87407 17.8863 3.52077 38.8971 61.0389 21.5143
lowerback 22.2237 -0.843808 12.7423
upperback 8.03879 2.58213 7.54467
thorax -3.33743 1.55473 0.358226
lowerneck -24.767 -6.72225 -5.01728
upperneck 22.8243 -9.46174 7.25167
head 12.2566 -3.63023 1.88383
rclavicle -5.40694e-014 6.99722e-014
rhumerus 22.573 5.03403 -66.2607
rradius 33.0591
rwrist 2.11077
rhand -13.145 35.5079
rfingers 7.12502
rthumb 12.9534 5.92996
lclavicle -5.40694e-014 6.99722e-014
lhumerus -23.9944 -33.7551 96.779
lradius 65.4212
lwrist 43.4392
lhand -15.9925 58.8085
lfingers 7.12502
lthumb -169.793 -91.4592
rfemur -38.3548 -4.71976 15.0718
rtibia 30.3699
rfoot -10.141 -13.2576
rtoes -0.351117
lfemur -29.7682 -5.76398 -20.3277
ltibia 17.8485
lfoot 0.413165 2.26085
ltoes -33.7224
498
root -6.89369 17.8902 3.51437 39.0799 61.2725 21.6796
lowerback 22.2209 -0.834097 12.7908
upperback 8.05356 2.60279 7.51906
thorax -3.31376 1.56812 0.299248
lowerneck -24.7319 -6.76923 -4.99865
upperneck 22.7578 -9.56593 7.37654
head 12.2389 -3.65984 1.90875
rclavicle -3.81667e-014 1.27222e-014
rhumerus 22.5241 4.55216 -66.2994
rradius 33.1717
rwrist 1.82645
rhand -13.1331 35.8812
rfingers 7.12502
rthumb 12.9649 6.30405
lclavicle -3.81667e-014 1.27222e-014
lhumerus -23.8806 -33.8134 96.6952
lradius 65.3902
lwrist 43.3264
lhand -16.1203 58.9209
lfingers 7.12502
lthumb -169.916 -91.3407
rfemur -38.3437 -4.71078 15.067
rtibia 30.2642
rfoot -10.0066 -13.423
rtoes -0.256878
lfemur -29.9516 -5.72227 -20.3233
ltibia 17.8928
lfoot 0.671714 1.97267
ltoes -33.3077
499
root -6.91422 17.8923 3.50688 39.2637 61.5242 21.8079
lowerback 22.1879 -0.831861 12.8994
upperback 8.06183 2.61973 7.47738
thorax -3.27761 1.5807 0.191424
lowerneck -24.6756 -6.80636 -4.99974
upperneck 22.6637 -9.64367 7.48818
head 12.2047 -3.68309 1.93704
rclavicle -6.36111e-015 -9.85972e-014
rhumerus 22.4592 4.08973 -66.3365
rradius 33.3267
rwrist 1.65604
rhand -13.0813 35.9884
rfingers 7.12502
rthumb 13.0148 6.41437
lclavicle -6.36111e-015 -9.85972e-014
lhumerus -23.7467 -33.8848 96.5892
lradius 65.3119
lwrist 43.2677
lhand -16.2612 58.9921
lfingers 7.12502
lthumb -170.052 -91.263
rfemur -38.364 -4.69889 15.09
rtibia 30.1283
rfoot -9.86239 -13.6101
rtoes 0.223491
lfemur -30.1876 -5.81412 -20.2333
ltibia 17.9164
lfoot 1.03848 1.70033
ltoes -33.7898
500
root -6.93565 17.8957 3.50167 39.4924 61.7419 22.0164
lowerback 22.201 -0.820003 12.8856
upperback 8.07485 2.63389 7.45864
thorax -3.26868 1.58941 0.174951
lowerneck -24.7043 -6.83152 -4.99321
upperneck 22.6777 -9.68503 7.50216
head 12.2193 -3.69739 1.93297
rclavicle 5.40694e-014 2.22639e-014
rhumerus 22.361 3.7772 -66.2653
rradius 33.5668
rwrist 1.55115
rhand -12.9486 35.8485
rfingers 7.12502
rthumb 13.1428 6.2827
lclavicle 5.40694e-014 2.22639e-014
lhumerus -23.6352 -33.8214 96.5457
lradius 65.2594
lwrist 43.2797
lhand -16.1417 59.3723
lfingers 7.12502
lthumb -169.937 -90.8884
rfemur -38.338 -4.61879 15.037
rtibia 29.9676
rfoot -9.73926 -13.9086
rtoes 0.533944
lfemur -30.3876 -5.87848 -20.2035
ltibia 17.9341
lfoot 1.31864 1.49897
ltoes -34.3335
501
root -6.95584 17.9011 3.49841 39.7445 61.9471 22.2802
lowerback 22.2226 -0.8075 12.8064
upperback 8.10198 2.63647 7.44764
thorax -3.25393 1.59271 0.205208
lowerneck -24.9187 -6.83082 -4.90418
upperneck 22.872 -9.69081 7.38175
head 12.3238 -3.69628 1.86869
rclavicle -2.22639e-014 -3.18055e-015
rhumerus 22.2569 3.55105 -66.1184
rradius 33.8453
rwrist 1.38379
rhand -12.707 35.686
rfingers 7.12502
rthumb 13.3756 6.13536
lclavicle -2.22639e-014 -3.18055e-015
lhumerus -23.552 -33.5941 96.5138
lradius 65.2763
lwrist 43.3322
lhand -15.4637 60.0093
lfingers 7.12502
lthumb -169.283 -90.284
rfemur -38.2607 -4.53766 14.9436
rtibia 29.7935
rfoot -9.70293 -14.2014
rtoes 1.1851
lfemur -30.5305 -5.92502 -20.2145
ltibia 17.9446
lfoot 1.5396 1.39938
ltoes -33.9557
